<svg width="88" height="88" viewBox="0 0 24 25" fill="none" xmlns="http://www.w3.org/2000/svg">
<path d="M12 0.823364C5.37 0.823364 0 6.19979 0 12.831C0 18.1374 3.438 22.6373 8.205 24.2233C8.805 24.3363 9.025 23.9651 9.025 23.6459C9.025 23.3607 9.015 22.6052 9.01 21.6046C5.672 22.3291 4.968 19.9936 4.968 19.9936C4.422 18.6077 3.633 18.2375 3.633 18.2375C2.546 17.493 3.717 17.508 3.717 17.508C4.922 17.592 5.555 18.7448 5.555 18.7448C6.625 20.581 8.364 20.0506 9.05 19.7434C9.158 18.9669 9.467 18.4376 9.81 18.1374C7.145 17.8372 4.344 16.8045 4.344 12.2036C4.344 10.8928 4.809 9.8221 5.579 8.98156C5.444 8.67837 5.039 7.45759 5.684 5.80354C5.684 5.80354 6.689 5.48133 8.984 7.03432C9.944 6.76715 10.964 6.63507 11.984 6.62906C13.004 6.63507 14.024 6.76715 14.984 7.03432C17.264 5.48133 18.269 5.80354 18.269 5.80354C18.914 7.45759 18.509 8.67837 18.389 8.98156C19.154 9.8221 19.619 10.8928 19.619 12.2036C19.619 16.8166 16.814 17.8322 14.144 18.1274C14.564 18.4876 14.954 19.2241 14.954 20.3488C14.954 21.9558 14.939 23.2467 14.939 23.6369C14.939 23.9521 15.149 24.3273 15.764 24.2073C20.565 22.6323 24 18.1294 24 12.831C24 6.19979 18.627 0.823364 12 0.823364Z" fill="#e6e6e6"/>
</svg>
