<svg width="135" height="21" viewBox="0 0 135 21" fill="none" xmlns="http://www.w3.org/2000/svg">
<path d="M0.192578 3.1C0.192578 2.79333 0.199245 2.56667 0.212578 2.42C0.239245 2.26 0.305911 2.08 0.412578 1.88C0.599245 1.52 1.11924 1.34 1.97258 1.34C2.90591 1.34 3.45925 1.58667 3.63258 2.08C3.69924 2.30667 3.73258 2.65333 3.73258 3.12V14.24C3.73258 14.56 3.71924 14.7933 3.69258 14.94C3.67925 15.0867 3.61925 15.26 3.51258 15.46C3.32591 15.82 2.80591 16 1.95258 16C1.01924 16 0.472578 15.7467 0.312578 15.24C0.232578 15.0267 0.192578 14.6867 0.192578 14.22V3.1ZM12.0093 14.68C11.5026 15.3467 10.696 15.68 9.5893 15.68C8.48263 15.68 7.44263 15.1733 6.4693 14.16C5.5093 13.1333 5.0293 11.94 5.0293 10.58C5.0293 9.22 5.51596 8.02667 6.4893 7C7.46263 5.97333 8.5293 5.46 9.6893 5.46C10.1426 5.46 10.556 5.54667 10.9293 5.72C11.3026 5.88 11.556 6.03333 11.6893 6.18C11.836 6.31333 11.9493 6.44 12.0293 6.56C12.0693 6.18667 12.2026 5.90667 12.4293 5.72C12.6693 5.52 13.0493 5.42 13.5693 5.42C14.0893 5.42 14.4693 5.46 14.7093 5.54C14.9493 5.62 15.116 5.76 15.2093 5.96C15.316 6.14667 15.376 6.31333 15.3893 6.46C15.416 6.60667 15.4293 6.83333 15.4293 7.14V15.42C15.4293 16.9533 14.896 18.1867 13.8293 19.12C12.7626 20.0667 11.5626 20.54 10.2293 20.54C9.21596 20.54 8.2493 20.2933 7.3293 19.8C6.4093 19.3067 5.9493 18.86 5.9493 18.46C5.9493 17.94 6.1493 17.48 6.5493 17.08C6.80263 16.8 6.99596 16.6067 7.1293 16.5C7.27596 16.3933 7.44263 16.34 7.6293 16.34C7.81596 16.34 8.0093 16.42 8.2093 16.58C8.8493 17.0733 9.54263 17.32 10.2893 17.32C10.796 17.32 11.2093 17.12 11.5293 16.72C11.8493 16.32 12.0093 15.84 12.0093 15.28V14.68ZM8.4493 10.6C8.4493 11.0267 8.61596 11.4133 8.9493 11.76C9.29596 12.1067 9.7093 12.28 10.1893 12.28C10.6826 12.28 11.0893 12.1067 11.4093 11.76C11.7293 11.4 11.8893 11.0133 11.8893 10.6C11.8893 10.1733 11.736 9.78 11.4293 9.42C11.1226 9.04667 10.7093 8.86 10.1893 8.86C9.6693 8.86 9.2493 9.04 8.9293 9.4C8.6093 9.76 8.4493 10.16 8.4493 10.6ZM16.7285 10.74C16.7285 9.14 17.2885 7.82 18.4085 6.78C19.5285 5.74 20.8085 5.22 22.2485 5.22C23.6885 5.22 24.9618 5.74 26.0685 6.78C27.1752 7.80667 27.7285 9.12 27.7285 10.72C27.7285 11.8267 27.4418 12.8133 26.8685 13.68C26.2952 14.5333 25.5952 15.1667 24.7685 15.58C23.9552 15.98 23.1085 16.18 22.2285 16.18C21.3485 16.18 20.4952 15.9667 19.6685 15.54C18.8418 15.1 18.1418 14.46 17.5685 13.62C17.0085 12.7667 16.7285 11.8067 16.7285 10.74ZM20.9085 12.18C21.3352 12.5 21.7685 12.66 22.2085 12.66C22.6485 12.66 23.0885 12.4933 23.5285 12.16C23.9685 11.8267 24.1885 11.3333 24.1885 10.68C24.1885 10.0267 23.9818 9.54 23.5685 9.22C23.1552 8.9 22.7085 8.74 22.2285 8.74C21.7485 8.74 21.3018 8.90667 20.8885 9.24C20.4752 9.57333 20.2685 10.0667 20.2685 10.72C20.2685 11.36 20.4818 11.8467 20.9085 12.18ZM36.1807 5.58C36.434 5.66 36.6407 5.8 36.8007 6C36.974 6.18667 37.0607 6.49333 37.0607 6.92C37.0607 7.34667 36.934 7.81333 36.6807 8.32C36.4274 8.82667 36.0607 9.08 35.5807 9.08C35.3407 9.08 35.1074 9.02667 34.8807 8.92C34.6674 8.81333 34.3807 8.76 34.0207 8.76C33.6607 8.76 33.3207 8.88667 33.0007 9.14C32.694 9.39333 32.5407 9.7 32.5407 10.06V14.26C32.5407 14.5667 32.5274 14.8 32.5007 14.96C32.4874 15.1067 32.4274 15.28 32.3207 15.48C32.1207 15.8267 31.6007 16 30.7607 16C30.1207 16 29.6607 15.8867 29.3807 15.66C29.1674 15.4733 29.0474 15.1867 29.0207 14.8C29.0207 14.6667 29.0207 14.4733 29.0207 14.22V7.2C29.0207 6.89333 29.0274 6.66667 29.0407 6.52C29.0674 6.36 29.1274 6.18667 29.2207 6C29.4074 5.64 29.9274 5.46 30.7807 5.46C31.5807 5.46 32.0807 5.61333 32.2807 5.92C32.4274 6.13333 32.5007 6.35333 32.5007 6.58C32.5674 6.48667 32.6607 6.37333 32.7807 6.24C32.914 6.10667 33.1874 5.92667 33.6007 5.7C34.014 5.47333 34.374 5.36 34.6807 5.36C35.0007 5.36 35.2674 5.38 35.4807 5.42C35.694 5.44667 35.9274 5.5 36.1807 5.58ZM53.0399 12.58C53.5599 12.58 53.9333 12.6467 54.1599 12.78C54.3999 12.9 54.5599 13.08 54.6399 13.32C54.7333 13.56 54.7799 13.8667 54.7799 14.24C54.7799 14.6133 54.7466 14.9133 54.6799 15.14C54.6133 15.3667 54.5333 15.54 54.4399 15.66C54.3466 15.78 54.2066 15.8667 54.0199 15.92C53.8066 16 53.4666 16.04 52.9999 16.04H44.6799C44.3733 16.04 44.0799 15.96 43.7999 15.8C43.2133 15.4667 42.9199 14.94 42.9199 14.22C42.9199 13.8733 42.9999 13.5933 43.1599 13.38L49.3599 4.8H44.7599C44.4399 4.8 44.1999 4.79333 44.0399 4.78C43.8933 4.75333 43.7133 4.69333 43.4999 4.6C43.1133 4.41333 42.9199 3.91333 42.9199 3.1C42.9199 2.24667 43.0999 1.72667 43.4599 1.54C43.6599 1.43333 43.8333 1.37333 43.9799 1.36C44.1399 1.33333 44.3799 1.32 44.6999 1.32H52.7399C53.0466 1.32 53.3399 1.4 53.6199 1.56C53.8999 1.72 54.1133 1.93333 54.2599 2.2C54.4199 2.46667 54.4999 2.78 54.4999 3.14C54.4999 3.5 54.4199 3.78667 54.2599 4L48.0599 12.58H53.0399ZM62.9115 6.58C62.9915 5.83333 63.5182 5.46 64.4915 5.46C65.0115 5.46 65.3982 5.5 65.6515 5.58C65.9048 5.66 66.0782 5.8 66.1715 6C66.2782 6.2 66.3382 6.38 66.3515 6.54C66.3782 6.68667 66.3915 6.91333 66.3915 7.22V14.22C66.3915 14.5267 66.3782 14.76 66.3515 14.92C66.3382 15.0667 66.2848 15.24 66.1915 15.44C66.0048 15.7867 65.5448 15.96 64.8115 15.96C64.0915 15.96 63.6048 15.8733 63.3515 15.7C63.1115 15.5133 62.9715 15.2467 62.9315 14.9C62.4382 15.6067 61.6115 15.96 60.4515 15.96C59.3048 15.96 58.2382 15.4333 57.2515 14.38C56.2648 13.3267 55.7715 12.1067 55.7715 10.72C55.7715 9.32 56.2648 8.1 57.2515 7.06C58.2515 6.00667 59.3448 5.48 60.5315 5.48C60.9848 5.48 61.3982 5.56 61.7715 5.72C62.1448 5.88 62.4048 6.03333 62.5515 6.18C62.6982 6.31333 62.8182 6.44667 62.9115 6.58ZM59.2715 10.74C59.2715 11.18 59.4448 11.58 59.7915 11.94C60.1382 12.2867 60.5582 12.46 61.0515 12.46C61.5448 12.46 61.9515 12.28 62.2715 11.92C62.6048 11.56 62.7715 11.1667 62.7715 10.74C62.7715 10.3 62.6115 9.89333 62.2915 9.52C61.9848 9.14667 61.5648 8.96 61.0315 8.96C60.5115 8.96 60.0848 9.14667 59.7515 9.52C59.4315 9.89333 59.2715 10.3 59.2715 10.74ZM74.1855 10.72L76.8455 12.92C77.1789 13.2 77.3855 13.4133 77.4655 13.56C77.5589 13.7067 77.6055 13.8467 77.6055 13.98C77.6055 14.3 77.3989 14.7333 76.9855 15.28C76.5322 15.84 76.1322 16.12 75.7855 16.12C75.4922 16.12 75.0855 15.9267 74.5655 15.54L74.3655 15.4C74.0589 15.1467 73.5855 14.7067 72.9455 14.08C72.3055 13.44 71.8189 12.9867 71.4855 12.72V14.26C71.4855 14.5667 71.4722 14.8 71.4455 14.96C71.4322 15.1067 71.3722 15.28 71.2655 15.48C71.0922 15.8267 70.5789 16 69.7255 16C68.8855 16 68.3722 15.82 68.1855 15.46C68.0922 15.26 68.0322 15.0867 68.0055 14.94C67.9922 14.78 67.9855 14.5467 67.9855 14.24V2.26C67.9855 1.95333 67.9922 1.72667 68.0055 1.58C68.0322 1.42 68.0922 1.24 68.1855 1.04C68.3722 0.679999 68.8922 0.499999 69.7455 0.499999C70.3855 0.499999 70.8389 0.613333 71.1055 0.84C71.3322 1.02667 71.4522 1.32 71.4655 1.72C71.4789 1.84 71.4855 2.02667 71.4855 2.28V8.62C71.7255 8.42 72.0855 8.08 72.5655 7.6C73.0589 7.12 73.4255 6.78 73.6655 6.58L73.9055 6.42C74.3722 6.06 74.7722 5.88 75.1055 5.88C75.4389 5.88 75.8189 6.15333 76.2455 6.7C76.6855 7.23333 76.9055 7.65333 76.9055 7.96C76.9055 8.26667 76.6589 8.62667 76.1655 9.04L74.1855 10.72ZM84.5482 5.5C85.8815 5.5 86.9882 6.00667 87.8682 7.02C88.7615 8.03333 89.2082 9.27333 89.2082 10.74V14.26C89.2082 14.5667 89.1949 14.8 89.1682 14.96C89.1549 15.1067 89.0949 15.28 88.9882 15.48C88.8149 15.8267 88.3015 16 87.4482 16C86.6349 16 86.1282 15.8267 85.9282 15.48C85.8215 15.28 85.7549 15.1 85.7282 14.94C85.7149 14.78 85.7082 14.54 85.7082 14.22V10.72C85.7082 10.1733 85.5549 9.74667 85.2482 9.44C84.9415 9.13333 84.5482 8.98 84.0682 8.98C83.6015 8.98 83.1882 9.12667 82.8282 9.42C82.4682 9.7 82.2615 10.02 82.2082 10.38V14.26C82.2082 14.5667 82.1949 14.8 82.1682 14.96C82.1549 15.1067 82.0949 15.28 81.9882 15.48C81.8149 15.8267 81.3015 16 80.4482 16C79.6082 16 79.0949 15.82 78.9082 15.46C78.8149 15.26 78.7549 15.0867 78.7282 14.94C78.7149 14.7933 78.7082 14.56 78.7082 14.24V2.28C78.7082 1.97333 78.7149 1.74667 78.7282 1.6C78.7549 1.44 78.8149 1.26667 78.9082 1.08C79.0949 0.719999 79.6149 0.539999 80.4682 0.539999C81.3082 0.539999 81.8149 0.719999 81.9882 1.08C82.0949 1.28 82.1549 1.46 82.1682 1.62C82.1949 1.76667 82.2082 1.99333 82.2082 2.3V6.72C82.8749 5.90667 83.6549 5.5 84.5482 5.5ZM97.6576 6.58C97.7376 5.83333 98.2642 5.46 99.2376 5.46C99.7576 5.46 100.144 5.5 100.398 5.58C100.651 5.66 100.824 5.8 100.918 6C101.024 6.2 101.084 6.38 101.098 6.54C101.124 6.68667 101.138 6.91333 101.138 7.22V14.22C101.138 14.5267 101.124 14.76 101.098 14.92C101.084 15.0667 101.031 15.24 100.938 15.44C100.751 15.7867 100.291 15.96 99.5576 15.96C98.8376 15.96 98.3509 15.8733 98.0976 15.7C97.8576 15.5133 97.7176 15.2467 97.6776 14.9C97.1842 15.6067 96.3576 15.96 95.1976 15.96C94.0509 15.96 92.9842 15.4333 91.9976 14.38C91.0109 13.3267 90.5176 12.1067 90.5176 10.72C90.5176 9.32 91.0109 8.1 91.9976 7.06C92.9976 6.00667 94.0909 5.48 95.2776 5.48C95.7309 5.48 96.1442 5.56 96.5176 5.72C96.8909 5.88 97.1509 6.03333 97.2976 6.18C97.4442 6.31333 97.5642 6.44667 97.6576 6.58ZM94.0176 10.74C94.0176 11.18 94.1909 11.58 94.5376 11.94C94.8842 12.2867 95.3042 12.46 95.7976 12.46C96.2909 12.46 96.6976 12.28 97.0176 11.92C97.3509 11.56 97.5176 11.1667 97.5176 10.74C97.5176 10.3 97.3576 9.89333 97.0376 9.52C96.7309 9.14667 96.3109 8.96 95.7776 8.96C95.2576 8.96 94.8309 9.14667 94.4976 9.52C94.1776 9.89333 94.0176 10.3 94.0176 10.74ZM109.892 5.58C110.145 5.66 110.352 5.8 110.512 6C110.685 6.18667 110.772 6.49333 110.772 6.92C110.772 7.34667 110.645 7.81333 110.392 8.32C110.138 8.82667 109.772 9.08 109.292 9.08C109.052 9.08 108.818 9.02667 108.592 8.92C108.378 8.81333 108.092 8.76 107.732 8.76C107.372 8.76 107.032 8.88667 106.712 9.14C106.405 9.39333 106.252 9.7 106.252 10.06V14.26C106.252 14.5667 106.238 14.8 106.212 14.96C106.198 15.1067 106.138 15.28 106.032 15.48C105.832 15.8267 105.312 16 104.472 16C103.832 16 103.372 15.8867 103.092 15.66C102.878 15.4733 102.758 15.1867 102.732 14.8C102.732 14.6667 102.732 14.4733 102.732 14.22V7.2C102.732 6.89333 102.738 6.66667 102.752 6.52C102.778 6.36 102.838 6.18667 102.932 6C103.118 5.64 103.638 5.46 104.492 5.46C105.292 5.46 105.792 5.61333 105.992 5.92C106.138 6.13333 106.212 6.35333 106.212 6.58C106.278 6.48667 106.372 6.37333 106.492 6.24C106.625 6.10667 106.898 5.92667 107.312 5.7C107.725 5.47333 108.085 5.36 108.392 5.36C108.712 5.36 108.978 5.38 109.192 5.42C109.405 5.44667 109.638 5.5 109.892 5.58ZM110.967 10.74C110.967 9.14 111.527 7.82 112.647 6.78C113.767 5.74 115.047 5.22 116.487 5.22C117.927 5.22 119.2 5.74 120.307 6.78C121.413 7.80667 121.967 9.12 121.967 10.72C121.967 11.8267 121.68 12.8133 121.107 13.68C120.533 14.5333 119.833 15.1667 119.007 15.58C118.193 15.98 117.347 16.18 116.467 16.18C115.587 16.18 114.733 15.9667 113.907 15.54C113.08 15.1 112.38 14.46 111.807 13.62C111.247 12.7667 110.967 11.8067 110.967 10.74ZM115.147 12.18C115.573 12.5 116.007 12.66 116.447 12.66C116.887 12.66 117.327 12.4933 117.767 12.16C118.207 11.8267 118.427 11.3333 118.427 10.68C118.427 10.0267 118.22 9.54 117.807 9.22C117.393 8.9 116.947 8.74 116.467 8.74C115.987 8.74 115.54 8.90667 115.127 9.24C114.713 9.57333 114.507 10.0667 114.507 10.72C114.507 11.36 114.72 11.8467 115.147 12.18ZM133.274 5.7C133.967 6.11333 134.314 6.55333 134.314 7.02C134.314 7.28667 134.18 7.65333 133.914 8.12L129.774 15.22C129.64 15.4467 129.427 15.6533 129.134 15.84C128.84 16.0133 128.547 16.1 128.254 16.1C127.974 16.1 127.7 16.0333 127.434 15.9C127.18 15.7533 127 15.6067 126.894 15.46L126.714 15.24L122.554 8.12C122.287 7.68 122.154 7.32 122.154 7.04C122.154 6.56 122.5 6.11333 123.194 5.7C123.7 5.40667 124.1 5.26 124.394 5.26C124.687 5.26 124.914 5.35333 125.074 5.54C125.247 5.71333 125.427 5.98 125.614 6.34L128.234 11.38L130.854 6.34C131 6.08667 131.107 5.90667 131.174 5.8C131.254 5.68 131.374 5.56667 131.534 5.46C131.694 5.34 131.907 5.28 132.174 5.28C132.44 5.28 132.807 5.42 133.274 5.7Z" fill="#EDEDED"/>
</svg>
