<svg width="108" height="17" viewBox="0 0 108 17" fill="none" xmlns="http://www.w3.org/2000/svg">
<path d="M0.0540625 2.68C0.0540625 2.43467 0.0593959 2.25333 0.0700625 2.136C0.0913959 2.008 0.144729 1.864 0.230063 1.704C0.379396 1.416 0.795396 1.272 1.47806 1.272C2.22473 1.272 2.6674 1.46933 2.80606 1.864C2.8594 2.04533 2.88606 2.32267 2.88606 2.696V11.592C2.88606 11.848 2.8754 12.0347 2.85406 12.152C2.8434 12.2693 2.7954 12.408 2.71006 12.568C2.56073 12.856 2.14473 13 1.46206 13C0.715396 13 0.278063 12.7973 0.150063 12.392C0.0860626 12.2213 0.0540625 11.9493 0.0540625 11.576V2.68ZM9.50744 11.944C9.1021 12.4773 8.45677 12.744 7.57144 12.744C6.6861 12.744 5.8541 12.3387 5.07544 11.528C4.30744 10.7067 3.92344 9.752 3.92344 8.664C3.92344 7.576 4.31277 6.62133 5.09144 5.8C5.8701 4.97867 6.72344 4.568 7.65144 4.568C8.0141 4.568 8.34477 4.63733 8.64344 4.776C8.9421 4.904 9.14477 5.02667 9.25144 5.144C9.36877 5.25067 9.45944 5.352 9.52344 5.448C9.55544 5.14933 9.6621 4.92533 9.84344 4.776C10.0354 4.616 10.3394 4.536 10.7554 4.536C11.1714 4.536 11.4754 4.568 11.6674 4.632C11.8594 4.696 11.9928 4.808 12.0674 4.968C12.1528 5.11733 12.2008 5.25067 12.2114 5.368C12.2328 5.48533 12.2434 5.66667 12.2434 5.912V12.536C12.2434 13.7627 11.8168 14.7493 10.9634 15.496C10.1101 16.2533 9.1501 16.632 8.08344 16.632C7.27277 16.632 6.49944 16.4347 5.76344 16.04C5.02744 15.6453 4.65944 15.288 4.65944 14.968C4.65944 14.552 4.81944 14.184 5.13944 13.864C5.3421 13.64 5.49677 13.4853 5.60344 13.4C5.72077 13.3147 5.8541 13.272 6.00344 13.272C6.15277 13.272 6.30744 13.336 6.46744 13.464C6.97944 13.8587 7.5341 14.056 8.13144 14.056C8.53677 14.056 8.86744 13.896 9.12344 13.576C9.37944 13.256 9.50744 12.872 9.50744 12.424V11.944ZM6.65944 8.68C6.65944 9.02133 6.79277 9.33067 7.05944 9.608C7.33677 9.88533 7.66744 10.024 8.05144 10.024C8.4461 10.024 8.77144 9.88533 9.02744 9.608C9.28344 9.32 9.41144 9.01067 9.41144 8.68C9.41144 8.33867 9.28877 8.024 9.04344 7.736C8.7981 7.43733 8.46744 7.288 8.05144 7.288C7.63544 7.288 7.29944 7.432 7.04344 7.72C6.78744 8.008 6.65944 8.328 6.65944 8.68ZM13.2828 8.792C13.2828 7.512 13.7308 6.456 14.6268 5.624C15.5228 4.792 16.5468 4.376 17.6988 4.376C18.8508 4.376 19.8695 4.792 20.7548 5.624C21.6401 6.44533 22.0828 7.496 22.0828 8.776C22.0828 9.66133 21.8535 10.4507 21.3948 11.144C20.9361 11.8267 20.3761 12.3333 19.7148 12.664C19.0641 12.984 18.3868 13.144 17.6828 13.144C16.9788 13.144 16.2961 12.9733 15.6348 12.632C14.9735 12.28 14.4135 11.768 13.9548 11.096C13.5068 10.4133 13.2828 9.64533 13.2828 8.792ZM16.6268 9.944C16.9681 10.2 17.3148 10.328 17.6668 10.328C18.0188 10.328 18.3708 10.1947 18.7228 9.928C19.0748 9.66133 19.2508 9.26667 19.2508 8.744C19.2508 8.22133 19.0855 7.832 18.7548 7.576C18.4241 7.32 18.0668 7.192 17.6828 7.192C17.2988 7.192 16.9415 7.32533 16.6108 7.592C16.2801 7.85867 16.1148 8.25333 16.1148 8.776C16.1148 9.288 16.2855 9.67733 16.6268 9.944ZM28.8446 4.664C29.0472 4.728 29.2126 4.84 29.3406 5C29.4792 5.14933 29.5486 5.39467 29.5486 5.736C29.5486 6.07733 29.4472 6.45067 29.2446 6.856C29.0419 7.26133 28.7486 7.464 28.3646 7.464C28.1726 7.464 27.9859 7.42133 27.8046 7.336C27.6339 7.25067 27.4046 7.208 27.1166 7.208C26.8286 7.208 26.5566 7.30933 26.3006 7.512C26.0552 7.71467 25.9326 7.96 25.9326 8.248V11.608C25.9326 11.8533 25.9219 12.04 25.9006 12.168C25.8899 12.2853 25.8419 12.424 25.7566 12.584C25.5966 12.8613 25.1806 13 24.5086 13C23.9966 13 23.6286 12.9093 23.4046 12.728C23.2339 12.5787 23.1379 12.3493 23.1166 12.04C23.1166 11.9333 23.1166 11.7787 23.1166 11.576V5.96C23.1166 5.71467 23.1219 5.53333 23.1326 5.416C23.1539 5.288 23.2019 5.14933 23.2766 5C23.4259 4.712 23.8419 4.568 24.5246 4.568C25.1646 4.568 25.5646 4.69067 25.7246 4.936C25.8419 5.10667 25.9006 5.28267 25.9006 5.464C25.9539 5.38933 26.0286 5.29867 26.1246 5.192C26.2312 5.08533 26.4499 4.94133 26.7806 4.76C27.1112 4.57867 27.3992 4.488 27.6446 4.488C27.9006 4.488 28.1139 4.504 28.2846 4.536C28.4552 4.55733 28.6419 4.6 28.8446 4.664ZM42.3319 10.264C42.7479 10.264 43.0466 10.3173 43.2279 10.424C43.4199 10.52 43.5479 10.664 43.6119 10.856C43.6866 11.048 43.7239 11.2933 43.7239 11.592C43.7239 11.8907 43.6973 12.1307 43.6439 12.312C43.5906 12.4933 43.5266 12.632 43.4519 12.728C43.3773 12.824 43.2653 12.8933 43.1159 12.936C42.9453 13 42.6733 13.032 42.2999 13.032H35.6439C35.3986 13.032 35.1639 12.968 34.9399 12.84C34.4706 12.5733 34.2359 12.152 34.2359 11.576C34.2359 11.2987 34.2999 11.0747 34.4279 10.904L39.3879 4.04H35.7079C35.4519 4.04 35.2599 4.03467 35.1319 4.024C35.0146 4.00267 34.8706 3.95467 34.6999 3.88C34.3906 3.73067 34.2359 3.33067 34.2359 2.68C34.2359 1.99733 34.3799 1.58133 34.6679 1.432C34.8279 1.34667 34.9666 1.29867 35.0839 1.288C35.2119 1.26667 35.4039 1.256 35.6599 1.256H42.0919C42.3373 1.256 42.5719 1.32 42.7959 1.448C43.0199 1.576 43.1906 1.74667 43.3079 1.96C43.4359 2.17333 43.4999 2.424 43.4999 2.712C43.4999 3 43.4359 3.22933 43.3079 3.4L38.3479 10.264H42.3319ZM50.2292 5.464C50.2932 4.86667 50.7145 4.568 51.4932 4.568C51.9092 4.568 52.2185 4.6 52.4212 4.664C52.6239 4.728 52.7625 4.84 52.8372 5C52.9225 5.16 52.9705 5.304 52.9812 5.432C53.0025 5.54933 53.0132 5.73067 53.0132 5.976V11.576C53.0132 11.8213 53.0025 12.008 52.9812 12.136C52.9705 12.2533 52.9279 12.392 52.8532 12.552C52.7039 12.8293 52.3359 12.968 51.7492 12.968C51.1732 12.968 50.7839 12.8987 50.5812 12.76C50.3892 12.6107 50.2772 12.3973 50.2452 12.12C49.8505 12.6853 49.1892 12.968 48.2612 12.968C47.3439 12.968 46.4905 12.5467 45.7012 11.704C44.9119 10.8613 44.5172 9.88533 44.5172 8.776C44.5172 7.656 44.9119 6.68 45.7012 5.848C46.5012 5.00533 47.3759 4.584 48.3252 4.584C48.6879 4.584 49.0185 4.648 49.3172 4.776C49.6159 4.904 49.8239 5.02667 49.9412 5.144C50.0585 5.25067 50.1545 5.35733 50.2292 5.464ZM47.3172 8.792C47.3172 9.144 47.4559 9.464 47.7332 9.752C48.0105 10.0293 48.3465 10.168 48.7412 10.168C49.1359 10.168 49.4612 10.024 49.7172 9.736C49.9839 9.448 50.1172 9.13333 50.1172 8.792C50.1172 8.44 49.9892 8.11467 49.7332 7.816C49.4879 7.51733 49.1519 7.368 48.7252 7.368C48.3092 7.368 47.9679 7.51733 47.7012 7.816C47.4452 8.11467 47.3172 8.44 47.3172 8.792ZM59.2484 8.776L61.3764 10.536C61.6431 10.76 61.8084 10.9307 61.8724 11.048C61.9471 11.1653 61.9844 11.2773 61.9844 11.384C61.9844 11.64 61.8191 11.9867 61.4884 12.424C61.1258 12.872 60.8058 13.096 60.5284 13.096C60.2938 13.096 59.9684 12.9413 59.5524 12.632L59.3924 12.52C59.1471 12.3173 58.7684 11.9653 58.2564 11.464C57.7444 10.952 57.3551 10.5893 57.0884 10.376V11.608C57.0884 11.8533 57.0778 12.04 57.0564 12.168C57.0458 12.2853 56.9978 12.424 56.9124 12.584C56.7738 12.8613 56.3631 13 55.6804 13C55.0084 13 54.5978 12.856 54.4484 12.568C54.3738 12.408 54.3258 12.2693 54.3044 12.152C54.2938 12.024 54.2884 11.8373 54.2884 11.592V2.008C54.2884 1.76267 54.2938 1.58133 54.3044 1.464C54.3258 1.336 54.3738 1.192 54.4484 1.032C54.5978 0.743999 55.0138 0.599999 55.6964 0.599999C56.2084 0.599999 56.5711 0.690666 56.7844 0.872C56.9658 1.02133 57.0618 1.256 57.0724 1.576C57.0831 1.672 57.0884 1.82133 57.0884 2.024V7.096C57.2804 6.936 57.5684 6.664 57.9524 6.28C58.3471 5.896 58.6404 5.624 58.8324 5.464L59.0244 5.336C59.3978 5.048 59.7178 4.904 59.9844 4.904C60.2511 4.904 60.5551 5.12267 60.8964 5.56C61.2484 5.98667 61.4244 6.32267 61.4244 6.568C61.4244 6.81333 61.2271 7.10133 60.8324 7.432L59.2484 8.776ZM67.5386 4.6C68.6052 4.6 69.4906 5.00533 70.1946 5.816C70.9092 6.62667 71.2666 7.61867 71.2666 8.792V11.608C71.2666 11.8533 71.2559 12.04 71.2346 12.168C71.2239 12.2853 71.1759 12.424 71.0906 12.584C70.9519 12.8613 70.5412 13 69.8586 13C69.2079 13 68.8026 12.8613 68.6426 12.584C68.5572 12.424 68.5039 12.28 68.4826 12.152C68.4719 12.024 68.4666 11.832 68.4666 11.576V8.776C68.4666 8.33867 68.3439 7.99733 68.0986 7.752C67.8532 7.50667 67.5386 7.384 67.1546 7.384C66.7812 7.384 66.4506 7.50133 66.1626 7.736C65.8746 7.96 65.7092 8.216 65.6666 8.504V11.608C65.6666 11.8533 65.6559 12.04 65.6346 12.168C65.6239 12.2853 65.5759 12.424 65.4906 12.584C65.3519 12.8613 64.9412 13 64.2586 13C63.5866 13 63.1759 12.856 63.0266 12.568C62.9519 12.408 62.9039 12.2693 62.8826 12.152C62.8719 12.0347 62.8666 11.848 62.8666 11.592V2.024C62.8666 1.77867 62.8719 1.59733 62.8826 1.48C62.9039 1.352 62.9519 1.21333 63.0266 1.064C63.1759 0.775999 63.5919 0.631999 64.2746 0.631999C64.9466 0.631999 65.3519 0.775999 65.4906 1.064C65.5759 1.224 65.6239 1.368 65.6346 1.496C65.6559 1.61333 65.6666 1.79467 65.6666 2.04V5.576C66.1999 4.92533 66.8239 4.6 67.5386 4.6ZM78.0261 5.464C78.0901 4.86667 78.5114 4.568 79.2901 4.568C79.7061 4.568 80.0154 4.6 80.2181 4.664C80.4207 4.728 80.5594 4.84 80.6341 5C80.7194 5.16 80.7674 5.304 80.7781 5.432C80.7994 5.54933 80.8101 5.73067 80.8101 5.976V11.576C80.8101 11.8213 80.7994 12.008 80.7781 12.136C80.7674 12.2533 80.7247 12.392 80.6501 12.552C80.5007 12.8293 80.1327 12.968 79.5461 12.968C78.9701 12.968 78.5807 12.8987 78.3781 12.76C78.1861 12.6107 78.0741 12.3973 78.0421 12.12C77.6474 12.6853 76.9861 12.968 76.0581 12.968C75.1407 12.968 74.2874 12.5467 73.4981 11.704C72.7087 10.8613 72.3141 9.88533 72.3141 8.776C72.3141 7.656 72.7087 6.68 73.4981 5.848C74.2981 5.00533 75.1727 4.584 76.1221 4.584C76.4847 4.584 76.8154 4.648 77.1141 4.776C77.4127 4.904 77.6207 5.02667 77.7381 5.144C77.8554 5.25067 77.9514 5.35733 78.0261 5.464ZM75.1141 8.792C75.1141 9.144 75.2527 9.464 75.5301 9.752C75.8074 10.0293 76.1434 10.168 76.5381 10.168C76.9327 10.168 77.2581 10.024 77.5141 9.736C77.7807 9.448 77.9141 9.13333 77.9141 8.792C77.9141 8.44 77.7861 8.11467 77.5301 7.816C77.2847 7.51733 76.9487 7.368 76.5221 7.368C76.1061 7.368 75.7647 7.51733 75.4981 7.816C75.2421 8.11467 75.1141 8.44 75.1141 8.792ZM87.8133 4.664C88.016 4.728 88.1813 4.84 88.3093 5C88.448 5.14933 88.5173 5.39467 88.5173 5.736C88.5173 6.07733 88.416 6.45067 88.2133 6.856C88.0106 7.26133 87.7173 7.464 87.3333 7.464C87.1413 7.464 86.9546 7.42133 86.7733 7.336C86.6026 7.25067 86.3733 7.208 86.0853 7.208C85.7973 7.208 85.5253 7.30933 85.2693 7.512C85.024 7.71467 84.9013 7.96 84.9013 8.248V11.608C84.9013 11.8533 84.8906 12.04 84.8693 12.168C84.8586 12.2853 84.8106 12.424 84.7253 12.584C84.5653 12.8613 84.1493 13 83.4773 13C82.9653 13 82.5973 12.9093 82.3733 12.728C82.2026 12.5787 82.1066 12.3493 82.0853 12.04C82.0853 11.9333 82.0853 11.7787 82.0853 11.576V5.96C82.0853 5.71467 82.0906 5.53333 82.1013 5.416C82.1226 5.288 82.1706 5.14933 82.2453 5C82.3946 4.712 82.8106 4.568 83.4933 4.568C84.1333 4.568 84.5333 4.69067 84.6933 4.936C84.8106 5.10667 84.8693 5.28267 84.8693 5.464C84.9226 5.38933 84.9973 5.29867 85.0933 5.192C85.2 5.08533 85.4186 4.94133 85.7493 4.76C86.08 4.57867 86.368 4.488 86.6133 4.488C86.8693 4.488 87.0826 4.504 87.2533 4.536C87.424 4.55733 87.6106 4.6 87.8133 4.664ZM88.6734 8.792C88.6734 7.512 89.1214 6.456 90.0174 5.624C90.9134 4.792 91.9374 4.376 93.0894 4.376C94.2414 4.376 95.2601 4.792 96.1454 5.624C97.0308 6.44533 97.4734 7.496 97.4734 8.776C97.4734 9.66133 97.2441 10.4507 96.7854 11.144C96.3268 11.8267 95.7668 12.3333 95.1054 12.664C94.4548 12.984 93.7774 13.144 93.0734 13.144C92.3694 13.144 91.6868 12.9733 91.0254 12.632C90.3641 12.28 89.8041 11.768 89.3454 11.096C88.8974 10.4133 88.6734 9.64533 88.6734 8.792ZM92.0174 9.944C92.3588 10.2 92.7054 10.328 93.0574 10.328C93.4094 10.328 93.7614 10.1947 94.1134 9.928C94.4654 9.66133 94.6414 9.26667 94.6414 8.744C94.6414 8.22133 94.4761 7.832 94.1454 7.576C93.8148 7.32 93.4574 7.192 93.0734 7.192C92.6894 7.192 92.3321 7.32533 92.0014 7.592C91.6708 7.85867 91.5054 8.25333 91.5054 8.776C91.5054 9.288 91.6761 9.67733 92.0174 9.944ZM106.519 4.76C107.073 5.09067 107.351 5.44267 107.351 5.816C107.351 6.02933 107.244 6.32267 107.031 6.696L103.719 12.376C103.612 12.5573 103.441 12.7227 103.207 12.872C102.972 13.0107 102.737 13.08 102.503 13.08C102.279 13.08 102.06 13.0267 101.847 12.92C101.644 12.8027 101.5 12.6853 101.415 12.568L101.271 12.392L97.9428 6.696C97.7295 6.344 97.6228 6.056 97.6228 5.832C97.6228 5.448 97.9001 5.09067 98.4548 4.76C98.8601 4.52533 99.1801 4.408 99.4148 4.408C99.6495 4.408 99.8308 4.48267 99.9588 4.632C100.097 4.77067 100.241 4.984 100.391 5.272L102.487 9.304L104.583 5.272C104.7 5.06933 104.785 4.92533 104.839 4.84C104.903 4.744 104.999 4.65333 105.127 4.568C105.255 4.472 105.425 4.424 105.639 4.424C105.852 4.424 106.145 4.536 106.519 4.76Z" fill="#16150E"/>
</svg>
