<svg width="18" height="16" viewBox="0 0 18 16" fill="none" xmlns="http://www.w3.org/2000/svg">
<path d="M0.805859 2.1C0.805859 1.79333 0.812526 1.56667 0.825859 1.42C0.852526 1.26 0.919193 1.08 1.02586 0.879999C1.21253 0.519999 1.73253 0.339999 2.58586 0.339999C3.51919 0.339999 4.07253 0.586666 4.24586 1.08C4.31253 1.30667 4.34586 1.65333 4.34586 2.12V13.24C4.34586 13.56 4.33253 13.7933 4.30586 13.94C4.29253 14.0867 4.23253 14.26 4.12586 14.46C3.93919 14.82 3.41919 15 2.56586 15C1.63253 15 1.08586 14.7467 0.925859 14.24C0.845859 14.0267 0.805859 13.6867 0.805859 13.22V2.1ZM15.7626 11.58C16.2826 11.58 16.6559 11.6467 16.8826 11.78C17.1226 11.9 17.2826 12.08 17.3626 12.32C17.4559 12.56 17.5026 12.8667 17.5026 13.24C17.5026 13.6133 17.4692 13.9133 17.4026 14.14C17.3359 14.3667 17.2559 14.54 17.1626 14.66C17.0692 14.78 16.9292 14.8667 16.7426 14.92C16.5292 15 16.1892 15.04 15.7226 15.04H7.40258C7.09591 15.04 6.80258 14.96 6.52258 14.8C5.93591 14.4667 5.64258 13.94 5.64258 13.22C5.64258 12.8733 5.72258 12.5933 5.88258 12.38L12.0826 3.8H7.48258C7.16258 3.8 6.92258 3.79333 6.76258 3.78C6.61591 3.75333 6.43591 3.69333 6.22258 3.6C5.83591 3.41333 5.64258 2.91333 5.64258 2.1C5.64258 1.24667 5.82258 0.726666 6.18258 0.539999C6.38258 0.433333 6.55591 0.373333 6.70258 0.359999C6.86258 0.333333 7.10258 0.319999 7.42258 0.319999H15.4626C15.7692 0.319999 16.0626 0.399999 16.3426 0.559999C16.6226 0.719999 16.8359 0.933332 16.9826 1.2C17.1426 1.46667 17.2226 1.78 17.2226 2.14C17.2226 2.5 17.1426 2.78667 16.9826 3L10.7826 11.58H15.7626Z" fill="#16150E"/>
</svg>
