<svg width="24" height="25" viewBox="0 0 24 25" fill="none" xmlns="http://www.w3.org/2000/svg">
<path d="M12 0.881714C8.74 0.881714 8.333 0.896721 7.053 0.953746C5.775 1.01377 4.905 1.21486 4.14 1.51199C3.351 1.81813 2.681 2.22931 2.014 2.89661C1.347 3.5639 0.935 4.2332 0.63 5.02355C0.333 5.78888 0.131 6.65927 0.072 7.93783C0.012 9.2184 0 9.62558 0 12.887C0 16.1485 0.015 16.5556 0.072 17.8362C0.132 19.1138 0.333 19.9852 0.63 20.7505C0.936 21.5389 1.347 22.2101 2.014 22.8774C2.681 23.5437 3.35 23.9569 4.14 24.2621C4.906 24.5582 5.776 24.7613 7.053 24.8203C8.333 24.8803 8.74 24.8923 12 24.8923C15.26 24.8923 15.667 24.8773 16.947 24.8203C18.224 24.7603 19.095 24.5582 19.86 24.2621C20.648 23.9559 21.319 23.5437 21.986 22.8774C22.652 22.2101 23.065 21.5419 23.37 20.7505C23.666 19.9852 23.869 19.1138 23.928 17.8362C23.988 16.5556 24 16.1485 24 12.887C24 9.62558 23.985 9.2184 23.928 7.93783C23.868 6.66027 23.666 5.78788 23.37 5.02355C23.064 4.2342 22.652 3.5639 21.986 2.89661C21.319 2.22931 20.651 1.81713 19.86 1.51199C19.095 1.21486 18.224 1.01277 16.947 0.953746C15.667 0.893719 15.26 0.881714 12 0.881714ZM12 3.04267C15.203 3.04267 15.585 3.05868 16.85 3.1137C18.02 3.16873 18.655 3.36281 19.077 3.52888C19.639 3.74598 20.037 4.0061 20.459 4.42528C20.878 4.84547 21.138 5.24464 21.355 5.80689C21.519 6.22908 21.715 6.86436 21.768 8.03488C21.825 9.30144 21.838 9.68161 21.838 12.887C21.838 16.0924 21.823 16.4736 21.764 17.7392C21.703 18.9097 21.508 19.545 21.343 19.9672C21.119 20.5294 20.864 20.9276 20.444 21.3498C20.025 21.769 19.62 22.0291 19.064 22.2462C18.644 22.4102 17.999 22.6063 16.829 22.6593C15.555 22.7164 15.18 22.7294 11.97 22.7294C8.759 22.7294 8.384 22.7144 7.111 22.6553C5.94 22.5943 5.295 22.3992 4.875 22.2342C4.306 22.0101 3.915 21.7549 3.496 21.3348C3.075 20.9156 2.806 20.5104 2.596 19.9541C2.431 19.534 2.237 18.8887 2.176 17.7182C2.131 16.4576 2.115 16.0684 2.115 12.872C2.115 9.6746 2.131 9.28443 2.176 8.00887C2.237 6.83835 2.431 6.19406 2.596 5.77388C2.806 5.20363 3.075 4.81345 3.496 4.39227C3.915 3.97308 4.306 3.70296 4.875 3.49387C5.295 3.3278 5.926 3.13271 7.096 3.07268C8.371 3.02766 8.746 3.01266 11.955 3.01266L12 3.04267ZM12 6.7223C8.595 6.7223 5.838 9.48352 5.838 12.887C5.838 16.2935 8.598 19.0518 12 19.0518C15.405 19.0518 18.162 16.2905 18.162 12.887C18.162 9.48052 15.402 6.7223 12 6.7223ZM12 16.8888C9.79 16.8888 8 15.098 8 12.887C8 10.676 9.79 8.88525 12 8.88525C14.21 8.88525 16 10.676 16 12.887C16 15.098 14.21 16.8888 12 16.8888ZM19.846 6.47919C19.846 7.27454 19.2 7.91983 18.406 7.91983C17.611 7.91983 16.966 7.27354 16.966 6.47919C16.966 5.68484 17.612 5.03955 18.406 5.03955C19.199 5.03855 19.846 5.68484 19.846 6.47919Z" fill="black"/>
</svg>
