<svg width="24" height="24" viewBox="0 0 24 24" fill="none" xmlns="http://www.w3.org/2000/svg">
<path d="M12 0C5.37 0 0 5.37398 0 12.0022C0 17.3062 3.438 21.804 8.205 23.3893C8.805 23.5023 9.025 23.1312 9.025 22.8122C9.025 22.5271 9.015 21.772 9.01 20.7718C5.672 21.4959 4.968 19.1615 4.968 19.1615C4.422 17.7762 3.633 17.4062 3.633 17.4062C2.546 16.662 3.717 16.677 3.717 16.677C4.922 16.7611 5.555 17.9133 5.555 17.9133C6.625 19.7486 8.364 19.2185 9.05 18.9114C9.158 18.1353 9.467 17.6062 9.81 17.3062C7.145 17.0061 4.344 15.9739 4.344 11.3751C4.344 10.0648 4.809 8.99464 5.579 8.15449C5.444 7.85143 5.039 6.63121 5.684 4.97791C5.684 4.97791 6.689 4.65585 8.984 6.20813C9.944 5.94108 10.964 5.80906 11.984 5.80306C13.004 5.80906 14.024 5.94108 14.984 6.20813C17.264 4.65585 18.269 4.97791 18.269 4.97791C18.914 6.63121 18.509 7.85143 18.389 8.15449C19.154 8.99464 19.619 10.0648 19.619 11.3751C19.619 15.9859 16.814 17.0011 14.144 17.2962C14.564 17.6562 14.954 18.3924 14.954 19.5166C14.954 21.1228 14.939 22.4131 14.939 22.8032C14.939 23.1182 15.149 23.4933 15.764 23.3733C20.565 21.799 24 17.2982 24 12.0022C24 5.37398 18.627 0 12 0Z" fill="#EDEDED"/>
</svg>
