<svg width="26" height="23" viewBox="0 0 26 23" fill="none" xmlns="http://www.w3.org/2000/svg">
<path d="M12.6923 0C5.67981 0 0 5.27986 0 11.792C0 17.0031 3.63635 21.4221 8.67836 22.9796C9.31298 23.0907 9.54567 22.7261 9.54567 22.4126C9.54567 22.1326 9.5351 21.3907 9.52981 20.408C5.99923 21.1194 5.25462 18.8259 5.25462 18.8259C4.67712 17.4649 3.8426 17.1013 3.8426 17.1013C2.69288 16.3702 3.93144 16.385 3.93144 16.385C5.20596 16.4675 5.87548 17.5995 5.87548 17.5995C7.00721 19.4027 8.84654 18.8819 9.57211 18.5802C9.68635 17.8177 10.0132 17.2979 10.376 17.0031C7.55721 16.7083 4.59461 15.6941 4.59461 11.1759C4.59461 9.88856 5.08644 8.83711 5.90087 8.01167C5.75808 7.71392 5.32971 6.51507 6.01192 4.89073C6.01192 4.89073 7.0749 4.57431 9.50231 6.0994C10.5177 5.83703 11.5965 5.70732 12.6754 5.70142C13.7542 5.70732 14.8331 5.83703 15.8485 6.0994C18.26 4.57431 19.323 4.89073 19.323 4.89073C20.0052 6.51507 19.5768 7.71392 19.4499 8.01167C20.259 8.83711 20.7509 9.88856 20.7509 11.1759C20.7509 15.7059 17.784 16.7033 14.96 16.9932C15.4042 17.347 15.8167 18.0702 15.8167 19.1747C15.8167 20.7529 15.8009 22.0205 15.8009 22.4038C15.8009 22.7133 16.023 23.0818 16.6735 22.9639C21.7514 21.4172 25.3846 16.9952 25.3846 11.792C25.3846 5.27986 19.7016 0 12.6923 0Z" fill="white"/>
</svg>
